#tb 0: 1/25
0,          0,          0,        1,   152064, 0xf503fb79
0,          1,          1,        1,   152064, 0xeaa4ba5d
0,          2,          2,        1,   152064, 0x50865a33
0,          3,          3,        1,   152064, 0x34125f86
0,          4,          4,        1,   152064, 0xc5a8bb68
0,          5,          5,        1,   152064, 0xe6e9b376
0,          6,          6,        1,   152064, 0x4e41d48e
0,          7,          7,        1,   152064, 0xea73cc5d
0,          8,          8,        1,   152064, 0xc0c60ac0
0,          9,          9,        1,   152064, 0xd7110670
0,         10,         10,        1,   152064, 0x00465d0d
0,         11,         11,        1,   152064, 0xa37a726b
0,         12,         12,        1,   152064, 0x5dd13b2a
0,         13,         13,        1,   152064, 0x08471f31
0,         14,         14,        1,   152064, 0x2bb2b055
0,         15,         15,        1,   152064, 0xd06d7f1c
0,         16,         16,        1,   152064, 0x91fde84a
0,         17,         17,        1,   152064, 0xdbb52d2b
0,         18,         18,        1,   152064, 0x505c08b4
0,         19,         19,        1,   152064, 0xd8aeef9f
0,         20,         20,        1,   152064, 0x4e3f8721
0,         21,         21,        1,   152064, 0xce534aee
0,         22,         22,        1,   152064, 0x51f80737
0,         23,         23,        1,   152064, 0x8fa0e443
0,         24,         24,        1,   152064, 0xe8c9db17
0,         25,         25,        1,   152064, 0xc84bcee6
0,         26,         26,        1,   152064, 0xa7916158
0,         27,         27,        1,   152064, 0x16149c36
0,         28,         28,        1,   152064, 0xe55213fd
0,         29,         29,        1,   152064, 0xa701e59d
0,         30,         30,        1,   152064, 0xad65e200
0,         31,         31,        1,   152064, 0x4606dc82
0,         32,         32,        1,   152064, 0x582f9f64
0,         33,         33,        1,   152064, 0xc630662a
0,         34,         34,        1,   152064, 0xe54bacf5
0,         35,         35,        1,   152064, 0x230e387f
0,         36,         36,        1,   152064, 0x1a9c746c
0,         37,         37,        1,   152064, 0xfa002d7c
0,         38,         38,        1,   152064, 0xe617c4a9
0,         39,         39,        1,   152064, 0xd3a4df19
0,         40,         40,        1,   152064, 0x25b9ca8c
0,         41,         41,        1,   152064, 0x0c505f7c
0,         42,         42,        1,   152064, 0x43f84f88
0,         43,         43,        1,   152064, 0x859fb3af
0,         44,         44,        1,   152064, 0x9680fc13
0,         45,         45,        1,   152064, 0x3fe6ecb6
0,         46,         46,        1,   152064, 0xf4c05a9c
0,         47,         47,        1,   152064, 0x16ba3b13
0,         48,         48,        1,   152064, 0x72f33fb9
0,         49,         49,        1,   152064, 0x3076e567
0,         50,         50,        1,   152064, 0x4e69b604
0,         51,         51,        1,   152064, 0x9c37a98b
0,         52,         52,        1,   152064, 0x0d5756c7
0,         53,         53,        1,   152064, 0xa4a46a81
0,         54,         54,        1,   152064, 0xadfc89d7
0,         55,         55,        1,   152064, 0x35693493
0,         56,         56,        1,   152064, 0xe3baedbf
0,         57,         57,        1,   152064, 0x78cfb405
0,         58,         58,        1,   152064, 0xd85c7074
0,         59,         59,        1,   152064, 0x14ab350e
0,         60,         60,        1,   152064, 0xaf55433e
0,         61,         61,        1,   152064, 0x75a8e79f
0,         62,         62,        1,   152064, 0x2fb599f6
0,         63,         63,        1,   152064, 0xbe30bdfe
0,         64,         64,        1,   152064, 0x8b07a5ce
0,         65,         65,        1,   152064, 0x99b32730
0,         66,         66,        1,   152064, 0x9265182d
0,         67,         67,        1,   152064, 0x91e789fd
0,         68,         68,        1,   152064, 0x1c1e6d16
0,         69,         69,        1,   152064, 0xfa06bdaa
0,         70,         70,        1,   152064, 0x7177041f
0,         71,         71,        1,   152064, 0xd902f99d
0,         72,         72,        1,   152064, 0x29bdc134
0,         73,         73,        1,   152064, 0xd713ab76
0,         74,         74,        1,   152064, 0x60e4788e
0,         75,         75,        1,   152064, 0xb18c7789
0,         76,         76,        1,   152064, 0x0b7829a5
0,         77,         77,        1,   152064, 0xf676d780
0,         78,         78,        1,   152064, 0xa88a3a57
0,         79,         79,        1,   152064, 0x825cf289
0,         80,         80,        1,   152064, 0x78928201
0,         81,         81,        1,   152064, 0x013a589c
0,         82,         82,        1,   152064, 0x9269fa64
0,         83,         83,        1,   152064, 0x6db5f5fa
0,         84,         84,        1,   152064, 0x49ad9d6a
0,         85,         85,        1,   152064, 0x1b7c290f
0,         86,         86,        1,   152064, 0x99716ad1
0,         87,         87,        1,   152064, 0x371527c2
0,         88,         88,        1,   152064, 0x9f351841
0,         89,         89,        1,   152064, 0x884bb432
